<svg xmlns="http://www.w3.org/2000/svg" width="24" height="24" viewBox="0 0 24 24">
  <g id="correct" transform="translate(-0.008 0)">
    <path id="Path_12155" data-name="Path 12155" d="M29.682,13.809,26.74,12.5,25.43,9.558l-3.2.334L19.624,8,17.017,9.892l-3.2-.334L12.508,12.5l-2.943,1.31.335,3.2-1.889,2.6L9.9,22.222l-.335,3.2,2.942,1.309,1.31,2.943,3.2-.334,2.6,1.889,2.606-1.889,3.2.334,1.309-2.942,2.943-1.31-.335-3.2,1.889-2.6-1.889-2.606ZM17.3,24.261l-3.286-3.286,1.1-1.092L17.3,22.07,23.87,15.5l1.1,1.1Zm0,0" transform="translate(-7.616 -7.616)" fill="#278b66"/>
    <g id="Group_9655" data-name="Group 9655" transform="translate(0.008 0)">
      <path id="Path_12156" data-name="Path 12156" d="M23.934,11.772l-1.8-2.486.319-3.054a.387.387,0,0,0-.228-.394L19.418,4.59,18.169,1.784a.389.389,0,0,0-.394-.228l-3.054.319L12.235.073a.387.387,0,0,0-.454,0l-2.486,1.8L6.24,1.556a.392.392,0,0,0-.394.228L4.6,4.59,1.792,5.838a.387.387,0,0,0-.228.394l.319,3.054-1.8,2.486a.387.387,0,0,0,0,.454l1.8,2.486-.319,3.054a.387.387,0,0,0,.228.394L4.6,19.41l1.248,2.806a.391.391,0,0,0,.394.228l3.054-.319,2.486,1.8a.387.387,0,0,0,.454,0l2.486-1.8,3.054.319a.389.389,0,0,0,.394-.228l1.248-2.806,2.805-1.249a.387.387,0,0,0,.228-.394l-.319-3.054,1.8-2.486a.387.387,0,0,0,0-.455Zm-2.516,2.606a.386.386,0,0,0-.072.267l.305,2.922-2.684,1.2a.384.384,0,0,0-.2.2l-1.194,2.684-2.922-.305a.386.386,0,0,0-.267.072l-2.379,1.724L9.629,21.41a.383.383,0,0,0-.227-.074.252.252,0,0,0-.039,0l-2.923.305L5.246,18.959a.387.387,0,0,0-.2-.2L2.364,17.568l.305-2.922a.388.388,0,0,0-.072-.267L.873,12,2.6,9.621a.388.388,0,0,0,.072-.267l-.3-2.922L5.048,5.236a.384.384,0,0,0,.2-.2L6.439,2.356l2.923.305a.391.391,0,0,0,.267-.072L12.008.865l2.379,1.724a.389.389,0,0,0,.267.072l2.922-.305L18.77,5.04a.387.387,0,0,0,.2.2l2.684,1.195-.305,2.922a.386.386,0,0,0,.072.267L23.142,12Zm0,0" transform="translate(-0.008 0)" fill="#278b66"/>
      <path id="Path_12157" data-name="Path 12157" d="M134.577,155.078a.387.387,0,0,0-.547,0l-6.3,6.3-1.917-1.914a.387.387,0,0,0-.547,0l-1.1,1.091a.387.387,0,0,0,0,.548l3.286,3.286a.387.387,0,0,0,.547,0l7.664-7.664a.387.387,0,0,0,0-.547Zm-6.842,8.486L125,160.826l.547-.546,1.918,1.914a.387.387,0,0,0,.547,0l6.3-6.295.548.548Zm0,0" transform="translate(-118.057 -147.467)" fill="#278b66"/>
    </g>
  </g>
</svg>
